# File created by Blade
# Date/Time:  Thu Jan 22 19:24:27 2015
#---------------------------------------------------------
:version 1.10
:name HOM
:units
  mass 1.0
  length 1.000000
  angle deg
:documentation
     Acclaim Skeleton File
:root
   axis xyz
   order TX TY TZ RX RY RZ
   position 0.000000 0.000000 0.000000
   orientation 0 0 0
:bonedata
   begin
      id 1
      name RightUpLeg_dum
      direction -1.000000 0.000000 0.000000
      length 4.478084
      axis 0.0 0.0 0.0 xyz
   end
   begin
      id 2
      name LeftUpLeg_dum
      direction 1.000000 0.000000 0.000000
      length 4.478084
      axis 0.0 0.0 0.0 xyz
   end
   begin
      id 3
      name Spine_dum
      direction 0.000000 1.000000 0.000000
      length 6.068208
      axis 0.0 0.0 0.0 xyz
   end
   begin
      id 4
      name RightUpLeg
      direction 0.000000 -1.000000 0.000000
      length 16.405774
      axis 0.0 0.0 0.0 xyz
      dof rx ry rz
   end
   begin
      id 5
      name RightLeg
      direction 0.000000 -1.000000 0.000000
      length 14.644143
      axis 0.0 0.0 0.0 xyz
      dof rx ry rz
   end
   begin
      id 6
      name RightFoot
      direction 0.000000 -0.258819 0.965926
      length 5.806150
      axis 15.0 0.0 0.0 xyz
      dof rx ry rz
   end
   begin
      id 7
      name RightToeBase
      direction 0.000000 0.000000 1.000000
      length 2.952750
      axis 0.0 0.0 0.0 xyz
      dof rx ry rz
   end
   begin
      id 8
      name LeftUpLeg
      direction 0.000000 -1.000000 0.000000
      length 16.405774
      axis 0.0 0.0 0.0 xyz
      dof rx ry rz
   end
   begin
      id 9
      name LeftLeg
      direction 0.000000 -1.000000 0.000000
      length 14.644143
      axis 0.0 0.0 0.0 xyz
      dof rx ry rz
   end
   begin
      id 10
      name LeftFoot
      direction 0.000000 -0.258819 0.965926
      length 5.806150
      axis 15.0 0.0 0.0 xyz
      dof rx ry rz
   end
   begin
      id 11
      name LeftToeBase
      direction 0.000000 0.000000 1.000000
      length 2.952750
      axis 0.0 0.0 0.0 xyz
      dof rx ry rz
   end
   begin
      id 12
      name Spine
      direction 0.000000 1.000000 0.000000
      length 0.000000
      axis 0.0 0.0 0.0 xyz
      dof rx ry rz
   end
   begin
      id 13
      name Spine_dum1
      direction 0.000000 1.000000 0.000000
      length 10.013923
      axis 0.0 0.0 0.0 xyz
   end
   begin
      id 14
      name Spine_dum2
      direction 0.000000 1.000000 0.000000
      length 10.013923
      axis 0.0 0.0 0.0 xyz
   end
   begin
      id 15
      name Spine_dum3
      direction 0.000000 1.000000 0.000000
      length 15.777476
      axis 0.0 0.0 0.0 xyz
   end
   begin
      id 16
      name RightShoulder
      direction -1.000000 0.000000 0.000000
      length 7.190220
      axis 0.0 0.0 90.0 xyz
      dof rx ry rz
   end
   begin
      id 17
      name RightArm
      direction -1.000000 0.000000 0.000000
      length 10.177469
      axis 0.0 0.0 90.0 xyz
      dof rx ry rz
   end
   begin
      id 18
      name RightForeArm
      direction -1.000000 0.000000 0.000000
      length 8.392114
      axis 0.0 0.0 90.0 xyz
      dof ry rz rx
   end
   begin
      id 19
      name RightHand
      direction -1.000000 0.000000 0.000000
      length 0.000000
      axis 0.0 0.0 90.0 xyz
      dof rx ry rz
   end
   begin
      id 20
      name RightHand_dum1
      direction -1.000000 0.000000 0.000000
      length 3.937000
      axis 0.0 0.0 90.0 xyz
   end
   begin
      id 21
      name RightHand_dum2
      direction 0.000000 0.000000 0.000000
      length 0.000000
      axis 0.0 0.0 90.0 xyz
   end
   begin
      id 22
      name RightHandThumb1
      direction 0.000000 0.000000 1.000000
      length 3.937000
      axis 0.0 0.0 90.0 xyz
      dof rx rz ry
   end
   begin
      id 23
      name LeftShoulder
      direction 1.000000 0.000000 0.000000
      length 7.190220
      axis 0.0 0.0 -90.0 xyz
      dof rx ry rz
   end
   begin
      id 24
      name LeftArm
      direction 1.000000 0.000000 0.000000
      length 10.177469
      axis 0.0 0.0 -90.0 xyz
      dof rx ry rz
   end
   begin
      id 25
      name LeftForeArm
      direction 1.000000 0.000000 0.000000
      length 8.392114
      axis 0.0 0.0 -90.0 xyz
      dof ry rz rx
   end
   begin
      id 26
      name LeftHand
      direction 1.000000 0.000000 0.000000
      length 0.000000
      axis 0.0 0.0 -90.0 xyz
      dof rx ry rz
   end
   begin
      id 27
      name LeftHand_dum1
      direction 1.000000 0.000000 0.000000
      length 3.937000
      axis 0.0 0.0 -90.0 xyz
   end
   begin
      id 28
      name LeftHand_dum2
      direction 0.000000 0.000000 0.000000
      length 0.000000
      axis 0.0 0.0 -90.0 xyz
   end
   begin
      id 29
      name LeftHandThumb1
      direction 0.000000 0.000000 1.000000
      length 3.937000
      axis 0.0 0.0 -90.0 xyz
      dof rx rz ry
   end
   begin
      id 30
      name Head
      direction 0.000000 1.000000 0.000000
      length 4.527550
      axis 0.0 0.0 0.0 xyz
      dof rx ry rz
   end
:hierarchy
   begin
      root RightUpLeg_dum LeftUpLeg_dum Spine_dum
      RightUpLeg_dum RightUpLeg
      LeftUpLeg_dum LeftUpLeg
      Spine_dum Spine
      RightUpLeg RightLeg
      RightLeg RightFoot
      RightFoot RightToeBase
      LeftUpLeg LeftLeg
      LeftLeg LeftFoot
      LeftFoot LeftToeBase
      Spine Spine_dum1 Spine_dum2 Spine_dum3
      Spine_dum1 RightShoulder
      Spine_dum2 LeftShoulder
      Spine_dum3 Head
      RightShoulder RightArm
      RightArm RightForeArm
      RightForeArm RightHand
      RightHand RightHand_dum1 RightHand_dum2
      RightHand_dum2 RightHandThumb1
      LeftShoulder LeftArm
      LeftArm LeftForeArm
      LeftForeArm LeftHand
      LeftHand LeftHand_dum1 LeftHand_dum2
      LeftHand_dum2 LeftHandThumb1
   end

# File created by Blade
# Date/Time:  Thu Jan 22 19:24:19 2015
# Frame Rate: 120.000 fps
#------------------------------------------------------
:FULLY-SPECIFIED
:DEGREES
1533
root -1.225841 33.118246 -3.347098 5.998837 -2.556965 1.622680
RightUpLeg -6.097280 -2.786253 1.953284
RightLeg 12.139935 -0.000000 -0.000000
RightFoot -16.323515 -1.419596 3.747779
RightToeBase 3.672082 -0.000000 -0.000000
LeftUpLeg -5.941619 -3.292771 -4.597871
LeftLeg 13.731233 -0.000000 -0.000000
LeftFoot -17.088876 5.913401 -11.347152
LeftToeBase 6.062511 -0.000000 -0.000000
Spine -6.602463 0.468618 -0.665731
RightShoulder -17.672865 -15.583803 -23.773394
RightArm 18.607421 30.861184 60.183891
RightForeArm -3.968839 0.000000 22.311009
RightHand 18.537705 0.000000 -9.703406
RightHandThumb1 -24.326973 -0.000000 -32.862282
LeftShoulder -23.011490 8.206622 25.169351
LeftArm 12.692960 -27.199468 -48.359405
LeftForeArm 14.193771 -0.000000 6.275809
LeftHand 0.794370 0.000000 5.382627
LeftHandThumb1 -26.253704 0.000000 33.147579
Head 4.836895 7.798270 -8.214988
1534
root -1.160479 33.116072 -3.353423 5.950546 -2.448348 1.709786
RightUpLeg -6.784809 -2.249604 1.753518
RightLeg 13.678086 -0.000000 -0.000000
RightFoot -16.833082 -1.967360 4.134067
RightToeBase 3.370124 -0.000000 -0.000000
LeftUpLeg -5.763611 -3.179455 -4.766965
LeftLeg 13.389668 -0.000000 -0.000000
LeftFoot -16.864414 5.646031 -11.410222
LeftToeBase 6.744416 -0.000000 -0.000000
Spine -6.503827 0.406655 -0.766402
RightShoulder -17.698726 -15.582857 -23.740200
RightArm 18.551499 30.877821 60.147395
RightForeArm -3.999847 -0.000000 22.280444
RightHand 18.485901 0.000000 -9.766370
RightHandThumb1 -24.326973 -0.000000 -32.862282
LeftShoulder -22.960078 8.132572 25.279524
LeftArm 12.566109 -27.341183 -48.151637
LeftForeArm 14.046155 -0.000000 6.306887
LeftHand 0.750374 -0.000000 5.481560
LeftHandThumb1 -26.253704 0.000000 33.147579
Head 4.787025 7.788245 -8.041878
1535
root -1.089140 33.113953 -3.363181 5.884300 -2.406457 1.806010
RightUpLeg -7.600542 -1.727855 1.510315
RightLeg 15.480620 -0.000000 -0.000000
RightFoot -17.295417 -2.349588 4.473588
RightToeBase 2.848339 -0.000000 -0.000000
LeftUpLeg -5.526418 -3.209186 -4.961189
LeftLeg 12.973679 -0.000000 -0.000000
LeftFoot -16.657831 5.596351 -11.462537
LeftToeBase 7.171315 -0.000000 -0.000000
Spine -6.358607 0.394755 -0.873681
RightShoulder -17.739019 -15.573330 -23.702800
RightArm 18.526241 30.979683 60.136213
RightForeArm -3.883065 -0.000000 22.254189
RightHand 18.612252 0.000000 -9.505944
RightHandThumb1 -24.326973 -0.000000 -32.862282
LeftShoulder -22.916906 8.073684 25.381900
LeftArm 12.437630 -27.435080 -47.948645
LeftForeArm 13.943926 -0.000000 6.303874
LeftHand 0.793444 -0.000000 5.630976
LeftHandThumb1 -26.253704 0.000000 33.147579
Head 4.701359 7.736639 -7.911935
1536
root -1.021257 33.108545 -3.375152 5.826035 -2.347029 1.925213
RightUpLeg -8.539141 -1.391457 1.261808
RightLeg 17.498067 -0.000000 -0.000000
RightFoot -17.741193 -2.586926 4.839793
RightToeBase 2.279505 -0.000000 -0.000000
LeftUpLeg -5.323463 -3.117896 -5.165929
LeftLeg 12.613362 -0.000000 -0.000000
LeftFoot -16.435697 5.425697 -11.375922
LeftToeBase 7.482625 -0.000000 -0.000000
Spine -6.217961 0.330253 -1.022706
RightShoulder -17.797310 -15.618525 -23.645486
RightArm 18.629459 30.937452 60.164367
RightForeArm -3.864798 0.000000 22.164151
RightHand 18.590206 -0.000000 -9.837231
RightHandThumb1 -24.326973 -0.000000 -32.862282
LeftShoulder -22.903614 8.090299 25.463129
LeftArm 12.415617 -27.642194 -47.769429
LeftForeArm 13.834664 -0.000000 6.242718
LeftHand 0.818359 -0.000000 5.660400
LeftHandThumb1 -26.253704 0.000000 33.147579
Head 4.585216 7.666398 -7.757102
1537
root -0.951144 33.102224 -3.388307 5.733245 -2.323584 2.073389
RightUpLeg -9.529615 -1.074740 0.969700
RightLeg 19.658622 -0.000000 -0.000000
RightFoot -18.119262 -2.719696 5.223407
RightToeBase 1.643214 -0.000000 -0.000000
LeftUpLeg -5.055878 -3.092066 -5.402146
LeftLeg 12.170668 -0.000000 -0.000000
LeftFoot -16.155863 5.233806 -11.361414
LeftToeBase 7.488206 -0.000000 -0.000000
Spine -6.023196 0.308386 -1.205545
RightShoulder -17.841759 -15.614489 -23.623362
RightArm 18.642619 30.989036 60.221377
RightForeArm -3.852368 -0.000000 22.170335
RightHand 18.512889 -0.000000 -9.702405
RightHandThumb1 -24.326973 -0.000000 -32.862282
LeftShoulder -22.876616 8.049812 25.560729
LeftArm 12.328105 -27.674211 -47.535833
LeftForeArm 13.542241 -0.000000 6.203802
LeftHand 0.789088 -0.000000 5.796230
LeftHandThumb1 -26.253704 0.000000 33.147579
Head 4.450045 7.597046 -7.621917
1538
root -0.874863 33.094032 -3.408385 5.650833 -2.271631 2.279335
RightUpLeg -10.656028 -0.933532 0.631219
RightLeg 22.024764 -0.000000 -0.000000
RightFoot -18.400405 -2.813580 5.521775
RightToeBase 0.868978 -0.000000 -0.000000
LeftUpLeg -4.729920 -3.656412 -5.712670
LeftLeg 11.562262 -0.000000 -0.000000
LeftFoot -15.928746 5.608604 -11.386908
LeftToeBase 7.654221 -0.000000 -0.000000
Spine -5.812008 0.212852 -1.434010
RightShoulder -17.845581 -15.534376 -23.648309
RightArm 18.591170 31.021347 60.272882
RightForeArm -3.837438 -0.000000 22.185103
RightHand 18.490976 -0.000000 -9.696925
RightHandThumb1 -24.326973 -0.000000 -32.862282
LeftShoulder -22.859734 7.939621 25.654016
LeftArm 12.159259 -27.832404 -47.277629
LeftForeArm 13.449200 -0.000000 6.223304
LeftHand 0.675284 -0.000000 5.749842
LeftHandThumb1 -26.253704 0.000000 33.147579
Head 4.263183 7.631856 -7.472881
1539
root -0.812875 33.084015 -3.427840 5.533455 -2.226761 2.373023
RightUpLeg -11.715363 -0.786457 0.418013
RightLeg 24.292002 -0.000000 -0.000000
RightFoot -18.458105 -2.822287 5.897713
RightToeBase -0.077502 -0.000000 0.000000
LeftUpLeg -4.579432 -3.189020 -5.902327
LeftLeg 11.385329 -0.000000 -0.000000
LeftFoot -15.711357 5.141219 -10.975094
LeftToeBase 7.597084 -0.000000 -0.000000
Spine -5.553703 0.134135 -1.571569
RightShoulder -17.844554 -15.470275 -23.637723
RightArm 18.543480 31.048446 60.285029
RightForeArm -3.769303 0.000000 22.208886
RightHand 18.518397 -0.000000 -9.427185
RightHandThumb1 -24.326973 -0.000000 -32.862282
LeftShoulder -22.832185 7.857869 25.774771
LeftArm 12.018334 -28.002101 -47.057204
LeftForeArm 13.340192 -0.000000 6.221173
LeftHand 0.598304 -0.000000 5.860602
LeftHandThumb1 -26.253704 0.000000 33.147579
Head 4.084531 7.561136 -7.322194
1540
root -0.737328 33.073341 -3.450008 5.430302 -2.208861 2.518275
RightUpLeg -13.027399 -0.930076 0.176438
RightLeg 26.990986 -0.000000 -0.000000
RightFoot -18.404225 -2.816391 6.106289
RightToeBase -1.246051 -0.000000 0.000000
LeftUpLeg -4.377908 -3.142981 -6.174413
LeftLeg 11.066245 -0.000000 -0.000000
LeftFoot -15.485408 5.084323 -10.678598
LeftToeBase 7.380911 -0.000000 -0.000000
Spine -5.299501 0.072706 -1.713159
RightShoulder -17.845571 -15.375101 -23.677101
RightArm 18.490397 31.028121 60.284702
RightForeArm -3.702913 -0.000000 22.216195
RightHand 18.492176 0.000000 -9.500794
RightHandThumb1 -24.326973 -0.000000 -32.862282
LeftShoulder -22.863158 7.831496 25.832879
LeftArm 11.984615 -28.179753 -46.911675
LeftForeArm 13.253735 -0.000000 6.215519
LeftHand 0.484662 -0.000000 5.961790
LeftHandThumb1 -26.253704 0.000000 33.147579
Head 3.858286 7.495711 -7.248976
1541
root -0.677283 33.065186 -3.472984 5.311471 -2.169269 2.589351
RightUpLeg -14.208475 -0.996682 0.019931
RightLeg 29.419903 -0.000000 -0.000000
RightFoot -18.098483 -2.847016 6.313521
RightToeBase -2.470828 -0.000000 0.000000
LeftUpLeg -4.155763 -3.112559 -6.346565
LeftLeg 10.744711 -0.000000 -0.000000
LeftFoot -15.307102 5.049505 -10.402433
LeftToeBase 7.226842 -0.000000 -0.000000
Spine -5.031994 -0.025695 -1.808782
RightShoulder -17.831576 -15.372109 -23.664765
RightArm 18.524814 31.036819 60.343650
RightForeArm -3.677480 -0.000000 22.232139
RightHand 18.455651 -0.000000 -9.430480
RightHandThumb1 -24.326973 -0.000000 -32.862282
LeftShoulder -22.861311 7.822009 25.900774
LeftArm 11.901681 -28.385578 -46.749393
LeftForeArm 13.169948 -0.000000 6.252092
LeftHand 0.441748 -0.000000 6.130074
LeftHandThumb1 -26.253704 0.000000 33.147579
Head 3.676065 7.448520 -7.179317
